General
Complete name                    : E:\Documents and Settings\coop\Desktop\ALIEN_VS_NINJA.(HARD.SUBED)DVD.RIP.T.C.M\ALIEN_VS_NINJA.(HARD.SUBED)DVD.RIP.T.C.M.avi
Format                           : AVI
Format/Info                      : Audio Video Interleave
File size                        : 674 MiB
Duration                         : 1h 21mn
Overall bit rate                 : 1 164 Kbps
Writing application              : MEncoder version 4.1.5 building on 20101022
Video
ID                               : 0
Format                           : MPEG-4 Visual
Format profile                   : Advanced Simple@L5
Format settings, BVOP            : 2
Format settings, QPel            : No
Format settings, GMC             : No warppoints
Format settings, Matrix          : Default (MPEG)
Codec ID                         : XVID
Codec ID/Hint                    : XviD
Duration                         : 1h 21mn
Bit rate                         : 991 Kbps
Width                            : 680 pixels
Height                           : 380 pixels
Display aspect ratio             : 16:9
Frame rate                       : 23.976 fps
Color space                      : YUV
Chroma subsampling               : 4:2:0
Bit depth                        : 8 bits
Scan type                        : Progressive
Compression mode                 : Lossy
Bits/(Pixel*Frame)               : 0.160
Stream size                      : 574 MiB (85%)
Writing library                  : XviD 1.2.1 (UTC 2008-12-04)

Audio
ID                               : 1
Format                           : MPEG Audio
Format version                   : Version 1
Format profile                   : Layer 3
Codec ID                         : 55
Codec ID/Hint                    : MP3
Duration                         : 1h 21mn
Bit rate mode                    : Constant
Bit rate                         : 160 Kbps
Channel(s)                       : 2 channels
Sampling rate                    : 48.0 KHz
Compression mode                 : Lossy
Delay relative to video          : 42ms
Stream size                      : 92.7 MiB (14%)
Alignment                        : Aligned on interleaves
Interleave, duration             : 24 ms (0.58 video frame)
Interleave, preload duration     : 504 ms

48x14.mb rars
sfv
nfo
snaps/thumbs
T.C.M.P.2.P@GMAIL